@startuml

skin rose

abstract class Compte {
  - email : String {id}
  - motDePasse : String
  - numAdresseCompte : String
  - rueCompte : String
  - villeCompte : String
  - codePostalCompte : int
  - telephone : String
  +(abstract) modifierCompte() : void
}

class CompteMembre {
  - nomMembre : String
  - prenomMembre : String
  - pseudo : String
  + modifierCompte() : void
}


class CompteProfessionnel {
  - denomination : String
  + modifierCompte() : void
}

class ProfessionnelPrive {
  - SIREN : String
  - IBAN : String {optional}
  + modifierCompte() : void
}

ProfessionnelPrive --|> CompteProfessionnel

CompteMembre --|> Compte
CompteProfessionnel --|> Compte

abstract class Offre {
  # idOffre : String {id}
  # nomOffre : String
  # numAdresseOffre : String
  # rueOffre : String
  # villeOffre : String
  # codePostalOffre : int
  # prixOffre : float
  # resume : String
  # noteOffre : float
  # dateDebut : Date
  # dateFin : Date
  # enLigne : boolean
  # datePublication : Date
  # derniereMaj : Date
  # estPremium : boolean
  # blacklistDispo : int
  + mettreHorsLigne() : void
  + compterAvis() : int
  + calculerNote() : float
  + calculerNbBlacklist(estPremium : boolean) : int
}

note right of Offre
- codePostalOffre commence par 22, 29, 35, 44, 56
- noteOffre >= 0
- dateFin >= dateDebut
- datePublication < dateFin
- derniereMaj >= datePublication
- 0 <= blacklistDispo <= 3
end note

class ImageOffre {
  - urlVersImage : String {id}
}

Offre "1" -- "1..*" ImageOffre: Illustre

class Activite{
  - ageRequis : int
  - dureeActivite : String
}
note left of Activite:- ageRequis >= 0

class Prestation {
  - idPresta : String {id}
  - nomPrestation : String
  - descriptionPresta : String
  - prixPresta : float
}
note left of Prestation:- prixPresta >= 0

Activite "1" -- "0..*" Prestation : PrestaProposées

class Visite {
  - dureeVisite : String
  - estGuidee : boolean
}

class Langue {
  - nomLangue : String {id}
}

Visite "0..*" -- "0..*" Langue : LanguesProposées

class Spectacles {
  - dureeSpectacle : String
  - placesSpectacle : int
  
}
note left of Spectacles:- placesSpectacle > 0

class ParcAttraction {
  - urlVersPlan : String
  - nbAttractions : int
  - ageMinParc : int
}
note left of ParcAttraction:- nbAttractions > 0

class Attraction {
  - idAttraction : String
  - nomAttraction : String
}
note right of Attraction:- ageMinAttraction >=0

ParcAttraction "1..*" -- "1" Attraction : AttractionsProposees

class Restauration {
  - urlVersCarte : String
  - gammePrix : String
  - moyCuisine : float
  - moyService : float
  - moyAmbiance : float
  - moyRapportQP : float
  - RepasServis : String
}

Offre <|-- Activite
Offre <|-- Visite
Offre <|-- Spectacles
Offre <|-- ParcAttraction
Offre <|-- Restauration

class Tarif {
  - nomTarif : String
  - prixTarif : float {prix > 0}
}
note right of Tarif:- prixTarif >= 0

Offre "1" -- "1..*" Tarif : grilleTarifaire

class Avis {
  - idAvis : String {id}
  - messageA : String
  - note : int {1  <= note <= 5}
  - nbLike : int
  - nbDislike : int
  - estConsulte : boolean
  - blacklist : boolean
  - estSiganle : boolean
  + signalerAvis() : void
  + supprimerAvis() : void
}
note right of Avis
- 1  <= note <= 5
- nbLike >= 0
- nbDislike >= 0
end note

Avis "1" -- "0..*" Restauration

class NoteRestaurant {
  - noteCuisine : int
  - noteService : int
  - noteAmbiance : int
  - noteRapportQP : int
  + calcAvisMoy() : float
}
note right of NoteRestaurant
- 1 <= noteCuisine <= 5
- 1 <= noteService <= 5
- 1 <= noteAmbiance <= 5
- 1 <= noteCuisine <= 5
end note

(Avis, Restauration) .. NoteRestaurant

class Reponse {
  - idRep : String {id}
  - messageRep : String
  + repondreAvis(message : String) : void
  + supprimerReponse() : void
}

CompteProfessionnel "1" -- "0..*" Offre : Propose
CompteMembre "1" -- "0..*" Avis : Donne
Avis "0..*" -- "1" Offre : Concerne

CompteProfessionnel "1" -- "0..*" Avis
(CompteProfessionnel, Avis) .. Reponse

class Facture {
  - numFacture : String {id}
  - prixFacture : float {prixFacture > 0}
  - dateFacturation : Date
}
note right of Facture:- prixFacture >= 0

Facture "0..*" -- "1" Offre : FacturationConcerne
Facture "0..*" -- "1" ProfessionnelPrive : ReglementFacture

@enduml
